<?xml version="1.0" standalone="no"?>
<!DOCTYPE svg PUBLIC "-//W3C//DTD SVG 20010904//EN"
 "http://www.w3.org/TR/2001/REC-SVG-20010904/DTD/svg10.dtd">
<svg version="1.0" xmlns="http://www.w3.org/2000/svg"
 width="2474.000000pt" height="2474.000000pt" viewBox="0 0 2474.000000 2474.000000"
 preserveAspectRatio="xMidYMid meet">
<metadata>
Created by potrace 1.11, written by Peter Selinger 2001-2013
</metadata>
<g transform="translate(0.000000,2474.000000) scale(0.100000,-0.100000)"
fill="#000000" stroke="none">
<path d="M2732 24169 c0 -314 -3 -573 -6 -576 -3 -3 -11 -1 -18 4 -7 6 -49 31
-93 55 -44 25 -98 55 -120 67 -41 24 -479 271 -550 311 -51 29 -474 264 -540
300 -390 215 -751 400 -779 400 -15 0 -16 -929 -16 -12360 0 -6798 3 -12360 8
-12360 4 0 23 10 42 22 35 21 469 276 525 308 17 9 88 51 158 93 71 43 130 77
132 77 2 0 104 59 155 90 21 12 213 126 689 404 222 130 406 234 409 232 2 -3
4 -280 4 -616 0 -335 3 -610 8 -610 4 0 18 8 31 18 13 10 31 21 39 25 8 3 36
19 62 34 40 24 145 86 201 118 9 5 162 95 340 200 643 378 929 545 933 545 2
0 35 20 74 45 39 25 72 45 74 45 3 0 692 402 736 429 8 5 71 43 140 83 69 40
133 77 142 83 39 23 185 109 218 127 52 30 527 309 662 389 64 38 121 69 126
69 6 0 12 3 14 8 2 4 35 26 73 48 39 23 338 198 665 389 327 191 607 356 622
366 15 10 29 19 32 19 7 0 273 157 308 181 15 10 29 19 32 19 3 0 39 20 79 45
41 25 80 45 86 45 6 0 11 4 11 9 0 5 8 11 18 15 9 3 33 15 52 27 19 12 168 99
331 195 163 95 310 181 327 191 99 59 133 78 182 106 30 16 62 36 70 43 8 7
38 24 65 39 69 36 109 59 115 65 3 3 16 11 29 18 13 8 38 22 55 31 17 10 110
65 206 121 96 57 184 108 195 114 19 11 61 36 410 241 77 46 156 92 175 103
42 24 239 139 260 153 8 5 65 38 125 73 123 71 511 298 559 327 61 37 77 39
277 38 110 -1 201 0 202 2 2 2 13 40 25 84 50 177 63 215 72 215 5 0 33 15 63
33 80 49 87 53 167 100 41 24 224 130 405 237 182 106 488 285 680 398 193
112 355 208 360 212 6 4 30 19 55 32 43 24 562 328 685 401 33 20 98 58 145
85 47 27 216 126 376 220 160 94 305 179 322 189 17 10 100 58 184 107 84 48
165 97 180 107 15 11 29 19 32 19 2 0 51 28 108 62 106 63 416 245 478 280 19
11 60 35 90 53 185 110 229 135 238 135 6 0 12 4 14 8 2 4 62 42 133 83 425
247 640 374 643 381 2 4 8 8 14 8 6 0 55 27 110 60 54 33 101 60 103 60 3 0
28 15 57 33 29 19 60 37 68 41 8 4 24 12 35 19 11 7 65 39 120 71 55 32 163
96 240 141 77 46 309 182 515 302 388 227 2208 1293 2455 1438 77 45 246 144
375 220 129 76 249 146 265 155 17 10 82 48 145 85 63 37 129 76 145 85 17 10
201 118 410 240 209 123 396 232 416 244 43 25 398 234 419 246 86 52 153 90
156 90 3 0 17 8 32 19 24 16 157 95 252 149 19 11 82 47 139 80 l104 61 -38
15 c-21 9 -39 16 -41 16 -12 0 -419 207 -599 305 -33 18 -91 50 -130 70 -38
21 -131 72 -205 113 -74 41 -169 92 -210 114 -41 23 -79 44 -85 48 -5 4 -41
24 -80 45 -38 21 -142 78 -230 128 -88 49 -180 101 -205 115 -25 14 -97 54
-160 90 -63 36 -135 76 -160 90 -25 14 -189 107 -365 207 -176 100 -340 193
-365 207 -25 14 -94 54 -155 88 -60 35 -123 71 -140 80 -16 10 -57 33 -90 52
-33 20 -80 47 -105 60 -25 14 -61 34 -80 45 -19 11 -107 62 -195 112 -88 50
-167 95 -175 100 -8 5 -172 100 -365 211 -192 111 -357 205 -365 211 -8 5 -71
40 -140 79 -69 39 -132 74 -140 80 -8 5 -49 29 -90 52 -41 24 -83 47 -92 53
-14 8 -161 94 -352 204 -93 54 -185 106 -246 141 -36 20 -152 87 -258 149
-106 61 -207 120 -225 130 -17 10 -93 54 -168 98 -74 44 -142 83 -150 86 -8 4
-27 16 -44 27 -16 11 -37 23 -45 26 -8 4 -40 22 -70 40 -95 56 -488 283 -538
311 -26 14 -54 32 -63 39 -8 8 -18 14 -22 14 -5 0 -248 140 -892 515 -187 109
-357 207 -377 218 -21 12 -38 27 -38 34 0 7 27 106 61 220 33 115 62 215 64
223 2 8 18 62 35 120 17 58 37 128 45 155 8 28 30 104 50 170 20 66 42 143 50
170 7 28 36 129 65 225 48 165 121 412 195 668 l33 112 -1183 0 -1182 0 -25
-92 c-23 -82 -54 -190 -142 -483 -14 -44 -39 -129 -56 -190 -18 -60 -36 -113
-40 -118 -5 -6 -46 13 -110 53 -43 27 -799 465 -825 478 -16 8 -36 20 -44 26
-7 6 -42 27 -76 46 -50 28 -274 159 -353 205 -9 6 -53 31 -97 56 -44 25 -161
93 -260 151 -449 261 -1173 683 -1205 701 -19 10 -98 56 -175 102 -77 45 -162
95 -190 110 -27 16 -157 90 -287 167 -130 76 -253 147 -273 158 -57 33 -92 53
-250 145 -82 49 -168 98 -190 110 -22 13 -150 87 -285 165 -298 174 -360 210
-665 387 -132 76 -249 144 -260 151 -158 92 -608 352 -611 352 -3 0 -23 11
-45 26 -22 14 -55 33 -72 43 -38 21 -275 158 -297 172 -52 31 -363 209 -366
209 -2 0 -34 18 -70 41 -37 22 -77 45 -88 50 -22 9 -57 30 -66 39 -3 3 -26 16
-51 30 -44 24 -638 365 -737 423 -26 15 -56 32 -67 38 -11 5 -29 15 -40 22
-11 7 -76 44 -145 83 -69 40 -141 81 -160 92 -155 89 -268 153 -560 319 -184
104 -360 204 -390 220 -30 17 -84 48 -120 68 -79 45 -126 72 -205 115 -33 18
-154 86 -270 150 -115 65 -246 137 -290 160 -97 52 -182 98 -272 146 -133 72
-339 172 -385 187 -15 5 -16 -36 -16 -564z"/>
</g>
</svg>
